<svg width="109" height="84" viewBox="0 0 109 84" fill="none" xmlns="http://www.w3.org/2000/svg">
<path d="M70.0798 0.279647C65.9589 3.10402 63.0654 7.34838 61.9721 12.1726C60.8787 16.9968 61.6652 22.0493 64.1758 26.33L97.5267 83.2445C97.6354 83.4269 97.7812 83.5851 97.9552 83.709C98.1292 83.833 98.3274 83.9201 98.5373 83.9647C98.7473 84.0093 98.9644 84.0106 99.1749 83.9684C99.3853 83.9261 99.5845 83.8414 99.7599 83.7194C103.881 80.8949 106.774 76.6504 107.868 71.826C108.961 67.0016 108.175 61.949 105.664 57.6682L72.313 0.755389C72.2045 0.572911 72.0587 0.414609 71.8848 0.290522C71.7108 0.166436 71.5126 0.0792687 71.3026 0.0345423C71.0927 -0.0101841 70.8756 -0.0114885 70.6651 0.0307037C70.4546 0.0728959 70.2553 0.157666 70.0798 0.279647Z" fill="#F47920"/>
<path d="M36.731 0.279645C32.6102 3.10415 29.7168 7.34849 28.6235 12.1727C27.5301 16.9968 28.3164 22.0493 30.8268 26.33L64.1779 83.2445C64.2866 83.4269 64.4324 83.5851 64.6064 83.709C64.7804 83.833 64.9786 83.9201 65.1885 83.9647C65.3985 84.0093 65.6156 84.0106 65.8261 83.9684C66.0365 83.9261 66.2357 83.8414 66.4112 83.7194C70.5321 80.8949 73.4255 76.6504 74.5189 71.826C75.6122 67.0016 74.8259 61.949 72.3152 57.6682L38.9651 0.755387C38.8565 0.572897 38.7104 0.414592 38.5364 0.290508C38.3624 0.166423 38.1641 0.0792636 37.954 0.0345408C37.744 -0.0101821 37.5271 -0.0114894 37.3165 0.0307023C37.106 0.0728939 36.9065 0.157664 36.731 0.279645Z" fill="#F47920"/>
<path d="M19.9616 44.7021C16.0135 44.7021 12.1541 45.8545 8.87138 48.0136C5.58871 50.1727 3.03037 53.2414 1.51952 56.8318C0.00867757 60.4222 -0.386667 64.373 0.383556 68.1845C1.15378 71.9961 3.05484 75.4972 5.84652 78.2452C8.6382 80.9932 12.1951 82.8646 16.0673 83.6227C19.9394 84.3809 23.953 83.9917 27.6005 82.5046C31.248 81.0174 34.3656 78.4989 36.5591 75.2676C38.7525 72.0364 39.9232 68.2374 39.9232 64.3512C39.9232 59.14 37.8199 54.1422 34.0764 50.4573C30.3329 46.7724 25.2557 44.7022 19.9616 44.7021Z" fill="#F04E23"/>
</svg>
